<?xml version="1.0" encoding="UTF-8"?>
<svg id="Layer_1" data-name="Layer 1" xmlns="http://www.w3.org/2000/svg" viewBox="0 0 651.34 676.26">
  <defs>
    <style>
      .cls-1 {
        fill: #33a8d3;
      }

      .cls-2, .cls-3 {
        fill: #2e1e43;
      }

      .cls-4 {
        fill: #2e1f44;
        font-family: Roboto-Black, Roboto;
        font-size: 96.36px;
        font-weight: 800;
      }

      .cls-5 {
        fill: #fff;
      }

      .cls-3 {
        stroke: #2e1e43;
        stroke-width: 2.44px;
      }

      .cls-6 {
        letter-spacing: .02em;
      }
    </style>
  </defs>
  <text class="cls-4" transform="translate(166.28 642.2)"><tspan x="0" y="0">A</tspan><tspan class="cls-6" x="65.64" y="0">r</tspan><tspan x="104.5" y="0">tisan</tspan></text>
  <path class="cls-1" d="M284.04,41.16c19.42-33.73,68.1-33.73,87.52,0l234.12,406.41c19.4,33.67-4.9,75.72-43.77,75.72H93.69c-38.87,0-63.17-42.05-43.77-75.72L284.04,41.16Z"/>
  <path class="cls-5" d="M331.08,99.37h0c23.58,0,42.7,19.12,42.7,42.7v331.81c0,23.58-19.12,42.7-42.7,42.7h0c-23.58,0-42.7-19.12-42.7-42.7V142.07c0-23.58,19.12-42.7,42.7-42.7Z"/>
  <rect class="cls-5" x="98.08" y="382.39" width="444.04" height="85.39" rx="17.08" ry="17.08"/>
  <path class="cls-5" d="M588.48,418.9c4.54,2.87,4.54,9.49,0,12.36l-54.02,34.24c-4.88,3.09-11.25-.41-11.25-6.18v-68.48c0-5.77,6.37-9.27,11.25-6.18l54.02,34.24Z"/>
  <path class="cls-5" d="M237.15,175.01l-47.58,36.6,8.54,24.4,29.28,18.3,50.02,40.26v51.24l-26.84-23.18-52.46-28.06-23.18-24.4-34.16-4.88-14.64,24.4-24.4,25.62-30.5-32.94,30.5-28.06,15.86-42.7,57.34-42.7,62.22,6.1Z"/>
  <path class="cls-5" d="M428.68,190.86v56.12l-37.23,39.63-.59,67.72,73.19-80.51,62.22-8.54,25.62-45.14-9.76-21.96-35.38,21.96-19.52-8.54-6.1-25.62,17.08-32.94-4.88-7.32-36.6,10.98-28.06,34.16Z"/>
  <path class="cls-3" d="M597.51,416.25l-1.12-1.08c-.56-.56-1.22-1.2-2.29-1.82l-51.72-30.59c-1.1-.7-2.24-1.14-3.61-1.36-2.95-2.68-6.86-4.15-11.35-4.26l-137.53,2.64v-12.49c.85-.44,1.61-1,2.22-1.7l76.27-84.98,7.03,1.9c.29.08.61.14.93.2,4.1.62,7.54.9,10.88.9,19.2,0,37.26-7.49,50.8-21.1,17.32-17.3,24.59-41.93,19.49-65.9-1.05-4.91-4.71-9.17-9.3-10.87-2.81-1.02-8.42-2.04-14.64,2.78-.32.22-.56.46-.83.72l-23.74,23.83-17.49-5.83-5.81-17.54,23.74-23.87c.29-.28.54-.58.78-.9,4.68-6.27,3.64-11.83,2.59-14.6-2-5.31-6.95-8.59-10.74-9.37-23.89-5.05-48.43,2.26-65.68,19.56-13.57,13.6-21.03,31.71-21.03,51,0,10.65,2.22,20.88,6.66,30.43l-32.13,36.16v-134.31c0-33.92-27.5-61.51-61.31-61.51s-61.31,27.59-61.31,61.51v133.63c-6.2-5.37-11.42-10.43-15.52-15.06-14.27-16.2-30.18-23.1-39.67-27.23l-.22-.1c-.07-4.38-1.93-8.57-5.12-11.61l-12.03-11.37c14.25-11.66,29.57-20.86,35.13-23.64l12.2-6.1c2.44-1.22,6.1-1.22,8.54-2.44s2.44-4.18,2.44-4.88,0-3.66-3.66-6.1c-6.81-4.54-30.42-7.92-36.6-8.54-6.56-.66-13.42,0-14.64,0l-5,.66c-55.12,7.51-84.1,52.74-89.35,61.73-1.37,2.34-2.05,5.01-2.02,7.73.37,21.41-11.3,26.09-18.25,26.99-3.95.5-7.59,2.62-10,5.81l-8.98,11.93c-3.95,5.21-4.05,12.33-.24,17.7,5.29,7.47,17.42,21.2,38.82,29.29,6.15,2.32,13.22.3,17.15-4.94l8.88-11.75c2.39-3.18,3.42-7.27,2.83-11.23-.68-4.56-.56-13.12,8.2-19.38,4.15-2.98,9.71-3.34,14.49-.98l11.42,5.67c3.56,1.76,7.61,2.16,11.44,1.12.07-.02.15-.04.24-.06.73.84,1.54,1.8,2.44,2.88,7.98,9.39,21.3,25.13,39.28,33.82,12.76,6.15,29.3,17.48,47.84,32.76v28.49H112.5c-11.42,0-20.69,9.31-20.69,20.76v52.92c0,11.45,9.27,20.76,20.69,20.76h154.81c.46,33.5,27.79,60.61,61.29,60.61s60.09-26.53,61.24-59.31l139.61-2.66c4.29-.08,8.37-1.88,11.49-5.04.24-.1.54-.2.81-.3.46-.16.93-.34,1.46-.62l51.31-31.51c1.05-.66,2.03-1.7,2.68-2.38,2.24-1.92,3.54-4.89,3.49-7.99-.07-2.96-1.2-5.71-3.12-7.57l-.05-.04ZM571.43,432.83l-25.84,15.92-.98-49.48,26.64,15.72.17,17.86v-.02ZM487.13,156.21c2.56,0,5.12.18,7.66.54l-24.64,24.75c-2.24,2.26-3.03,5.55-2.02,8.59l8.78,26.45c.83,2.5,2.81,4.5,5.29,5.31l26.35,8.81c3.03,1,6.32.22,8.56-2.04l24.64-24.71c2.42,17.1-3.34,34.42-15.61,46.69-10.42,10.45-24.25,16.18-38.99,16.18-2.37,0-4.88-.2-7.83-.62l-13.13-3.54c-6.73-2.76-12.81-6.81-18.03-12.03-10.39-10.43-16.1-24.31-16.1-39.11s5.71-28.69,16.1-39.12c10.42-10.45,24.23-16.18,38.94-16.18l.02.02ZM394.08,340.26v-43.65l36.3-40.89c1.85,2.4,3.86,4.67,5.95,6.77,4.88,4.89,10.42,9.05,16.47,12.33l-58.73,65.45ZM395.27,436.13v-18.2l136.68-2.62.32,18.2-137.02,2.64.02-.02ZM394.79,405.08v-12.17l132.92-2.56c.95,0,1.95.34,2.66,1.04.73.7,1.15,1.66,1.17,2.68l.17,8.37-136.92,2.64ZM532.88,454.55c0,1.02-.32,1.94-.98,2.62-.81.84-1.68,1.24-2.76,1.26l-134.34,2.58v-11.81l137.9-2.66.17,7.99v.02ZM370.19,143.76v328.32c0,23.01-18.69,41.75-41.62,41.75s-41.62-18.74-41.62-41.75V143.76c0-23.01,18.69-41.75,41.62-41.75s41.62,18.74,41.62,41.75ZM116.11,296.17l-8.12,10.77c-16.4-6.37-25.91-16.7-30.33-22.69l8.25-10.97c8.12-1.14,32.23-7.53,31.77-42.69,4.95-8.39,28.35-47.85,75.56-54.36,1.71-.16,9.34-1.06,10.98-1.22,7.05-.74,25.47-.96,35.38,0-1.34.16-10.91,1.02-12.2,1.22-3.29.52-11.66,1.46-15.86,2.44-11.86,2.78-25.5,6.77-35.21,11.9l-.85.44,1.63,3.54.85-.34c5.73-2.22,11.96-4.26,18.54-6.01,7.17-1.92,23.45-4.93,29.67-5.87-10.83,3.22-33.28,10.1-43.01,18.63-3.68,3.24-5.76,7.57-6,12.55l-.17,3.67,18.86,17.86c.1.1.15.28.07.4l-4.1,6.93,6.95,4.05c1.88,1.1,4.15,2.1,7.03,3.34,8.83,3.82,22.15,9.61,34.08,23.13,6.76,7.65,15.98,16.12,27.45,25.17v31.5c-15.59-12.11-29.35-21.08-40.94-26.67-14.96-7.23-26.45-20.79-34.06-29.77-2.63-3.1-4.71-5.53-6.56-7.31-.37-.32-.66-.62-.95-.9l-2.15-2.1,8-11.25-2.93-2.48-15.42,15.74-10.61-5.27c-10.05-4.97-21.86-4.11-30.79,2.28-15.96,11.41-15.71,27.49-14.74,34.3l-.07.02ZM128.68,444.04c0,3.3,2.68,5.99,5.98,5.99h132.63v8.49H112.48c-3.44,0-6.25-2.82-6.25-6.27v-52.92c0-3.46,2.81-6.27,6.25-6.27h.88v7.15c0,1.66,1.34,3,2.98,3s3-1.34,3-3v-7.15h12.35v21.53c0,2.76,2.22,4.99,4.98,4.99s4.98-2.24,4.98-4.99v-21.53h12.35v7.15c0,1.66,1.34,3,2.98,3s3-1.34,3-3v-7.15h12.35v21.53c0,2.76,2.22,4.99,4.98,4.99s4.98-2.24,4.98-4.99v-21.53h12.35v7.15c0,1.66,1.34,3,2.98,3s3-1.34,3-3v-7.15h12.35v21.53c0,2.76,2.22,4.99,4.98,4.99s4.98-2.24,4.98-4.99v-21.53h12.35v7.15c0,1.66,1.34,3,2.98,3s3-1.34,3-3v-7.15h12.35v21.53c0,2.76,2.22,4.99,4.98,4.99s4.98-2.24,4.98-4.99v-21.53h3.85v44.99h-132.63c-3.29,0-5.98,2.7-5.98,5.99h-.07Z"/>
  <path class="cls-2" d="M328.57,129.96c-8.03,0-14.57,6.55-14.57,14.6s6.54,14.6,14.57,14.6,14.57-6.55,14.57-14.6-6.54-14.6-14.57-14.6Z"/>
  <path class="cls-2" d="M343.11,471.95c-.29-6.31-4.54-11.69-10.59-13.4-2.61-.74-5.27-.74-7.9,0-6.05,1.72-10.3,7.09-10.59,13.4v.2c-.02.14-.02.3-.02.44,0,8.05,6.51,14.6,14.54,14.6s14.57-6.55,14.57-14.6v-.64Z"/>
  <path class="cls-2" d="M335.55,394.5v-174.26c0-3.85-3.12-6.99-6.98-6.99s-6.98,3.14-6.98,6.99v174.26c0,3.86,3.15,6.99,6.98,6.99s6.98-3.14,6.98-6.99Z"/>
</svg>