<?xml version="1.0" encoding="UTF-8"?>
<svg id="Layer_1" data-name="Layer 1" xmlns="http://www.w3.org/2000/svg" viewBox="0 0 651.34 676.26">
  <defs>
    <style>
      .cls-1 {
        fill: #33a8d3;
      }

      .cls-2, .cls-3 {
        fill: #2e1e43;
      }

      .cls-4 {
        fill: #2e1f44;
        font-family: Roboto-Black, Roboto;
        font-size: 96.36px;
        font-weight: 800;
      }

      .cls-5 {
        fill: #fff;
      }

      .cls-3 {
        stroke: #2e1e43;
        stroke-width: 7.67px;
      }
    </style>
  </defs>
  <text class="cls-4" transform="translate(158.89 641.23)"><tspan x="0" y="0">Captain</tspan></text>
  <path class="cls-1" d="M286.74,25.75c23.72-13.69,52.93-13.69,76.65,0l162.32,93.72c23.72,13.69,38.33,39,38.33,66.38v187.43c0,27.38-14.61,52.69-38.33,66.38l-162.32,93.72c-23.72,13.69-52.93,13.69-76.65,0l-162.32-93.72c-23.72-13.69-38.33-39-38.33-66.38v-187.43c0-27.38,14.61-52.69,38.33-66.38L286.74,25.75Z"/>
  <path class="cls-5" d="M106.95,407.36c6.36,11.27,20.62,15.02,31.89,8.64,7.51-4.32,37.3-27.03,53.45-44.69,23.25,34.72,59.25,58.94,100.13,67.4,7.51,1.51,15,2.45,22.69,3.01-7.13,23.1-12.01,60.63-12.01,69.47,0,12.95,10.5,23.45,23.43,23.45s23.43-10.5,23.43-23.45c0-8.81-4.88-46.37-12.01-69.47,49.49-3.37,94.69-29.48,122.44-70.77,16.3,17.83,46.32,40.73,54.01,45.25,11.24,6.39,25.5,2.63,31.86-8.64,6.57-11.09,2.63-25.35-8.25-32.12-7.69-4.32-42.75-18.96-66.17-24.22,15.92-32.47,20.44-69.27,12.93-104.76-2.63-12.78-6.95-25.17-12.57-36.79,23.63-5.44,58.33-19.9,65.82-24.22.38-.18.56-.18.77-.38,11.06-6.77,14.61-21.03,8.05-32.12-6.75-11.09-21-14.64-32.07-8.07-7.69,4.32-37.51,27.24-53.81,44.87-23.25-34.72-59.25-58.94-100.13-67.4-7.49-1.51-15-2.45-22.69-3.01,7.13-23.1,12.01-60.63,12.01-69.47,0-12.78-10.5-23.28-23.43-23.28s-23.43,10.32-23.43,23.28c0,8.81,4.88,46.37,12.01,69.47-49.52,3.37-94.69,29.48-122.44,70.77-16.33-17.83-46.5-40.93-54.01-45.25-.56-.38-1.12-.74-1.87-1.12-11.45-5.83-25.68-1.3-31.5,10.14-6,11.45-1.51,25.52,10.12,31.35,7.69,4.32,42.75,18.96,66.2,24.22-15.94,32.68-20.44,69.47-12.93,104.96,2.63,12.78,6.95,25.17,12.57,36.79-23.63,5.44-58.31,19.9-65.82,24.22-11.24,6.39-15,20.64-8.64,31.91l-.03.03ZM464.88,270.49c4.32,0,7.69,3.76,7.69,7.89s-3.76,7.69-7.87,7.69-7.69-3.76-7.69-7.89,3.55-7.69,7.87-7.69ZM266.12,405.29c-2.25,3.76-6.95,5.06-10.68,2.81-3.76-2.25-5.06-6.95-2.81-10.71,2.25-3.76,6.92-5.06,10.68-2.81,3.76,2.25,4.88,6.95,2.81,10.71ZM232.19,347.83l62.24-34.72c5.62,5.44,12.57,9.38,20.26,11.45l.95,71.54c-33.37-3.19-63.95-20.85-83.45-48.26ZM401.34,405.86c-3.76,2.25-8.64.95-10.68-2.81-2.07-3.76-.74-8.64,2.99-10.71,3.76-2.07,8.43-.74,10.5,2.81,2.25,3.76.95,8.64-2.81,10.71ZM353.51,393.64c-5.24,1.12-10.5,1.87-15.94,2.45l1.12-71.54c7.49-2.07,14.44-6,20.06-11.45l62.83,34.93c-16.33,23.1-40.5,39.42-68.07,45.61ZM439.76,307.49c-1.69,7.51-4.14,14.64-7.33,21.59l-61.5-36.97c2.07-7.51,2.07-15.59,0-23.28l61.32-36.61c10.68,23.66,13.31,50.13,7.51,75.3v-.03ZM387.08,155.59c2.25-3.76,6.92-5.06,10.68-2.81,3.76,2.25,5.06,6.95,2.81,10.71-2.25,3.76-6.95,5.06-10.68,2.81-3.76-2.07-5.06-6.95-2.81-10.71ZM421.01,213.06l-62.24,34.93c-5.62-5.62-12.57-9.58-20.24-11.65l-.95-71.54c33.37,3.19,63.93,20.85,83.45,48.26h-.03ZM343.01,280.43c0,9.02-7.31,16.33-16.33,16.33s-16.33-7.33-16.33-16.33,7.31-16.33,16.33-16.33,16.33,7.33,16.33,16.33ZM251.69,154.85c3.76-2.25,8.64-.95,10.68,2.81,2.25,3.76.95,8.64-2.81,10.71-3.76,2.25-8.64.95-10.68-2.81-2.07-3.76-.95-8.46,2.81-10.71ZM299.7,167.24c5.44-1.12,15.94-2.45,15.94-2.45l-.95,71.54c-7.69,2.07-14.61,6-20.26,11.45l-62.83-34.93c16.33-23.1,40.5-39.25,68.07-45.61h.03ZM213.44,253.6c1.69-7.51,4.11-14.64,7.31-21.59l61.5,36.79c-1.12,3.93-1.51,7.89-1.51,11.65s.56,7.89,1.51,11.65l-61.32,36.79c-10.68-23.66-13.31-50.13-7.49-75.27v-.03ZM180.63,282.5c0-4.32,3.55-7.69,7.87-7.69s7.69,3.58,7.69,7.89-3.55,7.69-7.87,7.69-7.69-3.58-7.69-7.89Z"/>
  <path class="cls-3" d="M545.54,360.95c-6.56-3.94-30.19-14.08-52.31-21.03,11.25-31.17,13.5-64.96,6.75-97.44-1.69-7.88-3.75-15.58-6.56-23.09,21.38-6.95,44.63-16.52,52.13-20.84,18.75-10.89,25.31-34.92,14.44-53.69-10.88-18.77-34.88-25.35-53.63-14.46-7.5,4.32-27.56,19.53-44.06,34.55-10.5-12.39-22.5-23.28-36-32.48-18.94-12.95-40.13-21.97-62.63-26.66-1.88-.38-3.94-.75-5.81-1.13,4.88-22.72,7.88-48.25,7.88-55.76.56-21.78-16.69-39.61-38.44-40.18-21.75-.56-39.56,16.71-40.13,38.49v1.69c0,7.7,3,33.23,8.06,55.95-20.63,3.57-40.32,10.89-58.32,21.59-17.44,10.33-33,23.28-45.94,38.68-17.25-15.77-37.69-30.98-44.44-34.92-18.75-10.89-42.75-4.32-53.63,14.46-10.88,18.77-4.31,42.8,14.44,53.69,6.56,3.76,30.19,13.89,52.32,21.03-11.25,31.16-13.5,64.96-6.75,97.44,1.5,7.88,3.75,15.58,6.37,23.09-21.38,6.76-44.63,16.52-52.13,20.84-18.75,10.89-25.31,34.92-14.44,53.69,10.88,18.77,34.88,25.35,53.63,14.46,7.5-4.32,27.56-19.53,44.06-34.54,10.5,12.39,22.5,23.28,36,32.48,18.94,12.95,40.31,21.97,62.82,26.47,1.88.38,3.94.75,5.81,1.13-5.06,22.72-8.06,48.06-8.06,55.76-.56,21.78,16.69,39.8,38.44,40.18,21.75.56,39.75-16.71,40.13-38.49v-1.69c0-7.7-3-33.23-8.06-55.95,20.63-3.57,40.32-10.89,58.32-21.59,17.44-10.33,33-23.28,45.94-38.68,17.06,15.77,37.69,30.98,44.44,34.92,18.75,10.89,42.75,4.32,53.63-14.46,11.06-18.59,4.5-42.62-14.25-53.5ZM546.11,406.76c-6.37,11.26-20.63,15.02-31.88,8.64-7.69-4.51-37.69-27.41-54-45.25-27.75,41.3-72.94,67.4-122.44,70.78,7.12,23.09,12,60.64,12,69.47,0,12.95-10.5,23.47-23.44,23.47s-23.44-10.51-23.44-23.47c0-8.82,4.88-46.37,12-69.47-7.69-.56-15.19-1.5-22.69-3-40.88-8.45-76.88-32.67-100.13-67.4-16.12,17.65-45.94,40.36-53.44,44.68-11.25,6.39-25.5,2.63-31.88-8.64-6.37-11.27-2.62-25.53,8.63-31.91,7.5-4.32,42.19-18.77,65.81-24.22-5.62-11.64-9.94-24.03-12.56-36.8-7.5-35.48-3-72.28,12.94-104.95-23.44-5.26-58.5-19.9-66.19-24.22-11.63-5.82-16.12-19.9-10.13-31.35,5.81-11.45,20.06-15.96,31.5-10.14.75.38,1.31.75,1.88,1.13,7.5,4.32,37.69,27.41,54,45.25,27.75-41.3,72.94-67.4,122.44-70.78-7.13-23.09-12-60.64-12-69.47,0-12.95,10.5-23.28,23.44-23.28s23.44,10.51,23.44,23.28c0,8.83-4.88,46.37-12,69.47,7.69.56,15.19,1.5,22.69,3,40.88,8.45,76.88,32.67,100.13,67.4,16.31-17.65,46.13-40.55,53.82-44.87,11.06-6.57,25.31-3,32.06,8.07,6.56,11.08,3,25.35-8.06,32.1-.19.19-.38.19-.75.38-7.5,4.32-42.19,18.77-65.81,24.22,5.62,11.64,9.94,24.03,12.56,36.8,7.5,35.48,3,72.28-12.94,104.76,23.44,5.26,58.5,19.9,66.19,24.22,10.88,6.76,14.81,21.03,8.25,32.1Z"/>
  <path class="cls-2" d="M393.47,391.55q0,.13,0,0c-3.75,2.06-5.06,6.95-3,10.7,2.06,3.76,6.94,5.07,10.69,2.82,3.75-2.07,5.06-6.95,2.81-10.7-2.06-3.57-6.75-4.88-10.5-2.82Z"/>
  <path class="cls-2" d="M263.16,393.8c-3.75-2.25-8.44-.94-10.69,2.82-2.25,3.75-.94,8.45,2.81,10.7,3.75,2.25,8.44.94,10.69-2.82,2.06-3.76.94-8.45-2.81-10.7Z"/>
  <path class="cls-2" d="M294.28,312.33l-62.25,34.73c19.5,27.41,50.06,45.06,83.44,48.25l-.94-71.53c-7.69-2.06-14.63-6.01-20.25-11.45ZM299.34,376.16c-15.94-4.51-30.56-12.95-42.56-24.59l36-20.09c1.87,1.31,3.94,2.44,6,3.38l.56,41.3Z"/>
  <path class="cls-2" d="M464.73,269.71c-4.31,0-7.88,3.57-7.88,7.7s3.56,7.88,7.69,7.88,7.88-3.57,7.88-7.7-3.38-7.88-7.69-7.88Z"/>
  <path class="cls-2" d="M338.53,323.78l-1.12,71.53c5.44-.56,10.69-1.32,15.94-2.44,27.56-6.19,51.75-22.53,68.07-45.62l-62.82-34.92c-5.63,5.44-12.56,9.39-20.06,11.45ZM396.66,351.57c-12,11.83-26.81,20.28-43.13,24.59l.56-41.49c2.06-1.13,4.13-2.25,6-3.38l36.56,20.28Z"/>
  <path class="cls-2" d="M370.79,268.02c2.06,7.7,2.06,15.77,0,23.28l61.5,36.98c3.19-6.95,5.63-14.08,7.31-21.59,5.81-25.16,3.19-51.63-7.5-75.28l-61.32,36.61ZM424.04,303.12c0,.38-.19.94-.38,1.31l-35.62-21.4c0-1.13.19-2.25.19-3.57,0-1.12,0-2.25-.19-3.38l35.44-21.21c3.94,15.96,4.13,32.29.56,48.25Z"/>
  <path class="cls-2" d="M358.6,247.18l62.25-34.92c-19.5-27.41-50.07-45.06-83.44-48.25l.94,71.53c7.69,2.07,14.62,6.01,20.25,11.64ZM353.53,183.16c15.94,4.51,30.57,12.96,42.56,24.59l-36,20.09c-1.88-1.32-3.94-2.44-6-3.38l-.56-41.3Z"/>
  <path class="cls-2" d="M389.72,165.51c3.75,2.25,8.44.94,10.69-2.82,2.25-3.75.94-8.45-2.81-10.7-3.75-2.25-8.44-.94-10.69,2.82-2.25,3.76-.94,8.64,2.81,10.7Z"/>
  <path class="cls-2" d="M326.53,263.32c-9,0-16.31,7.32-16.31,16.33s7.32,16.33,16.31,16.33,16.31-7.32,16.31-16.33-7.31-16.33-16.31-16.33Z"/>
  <path class="cls-2" d="M314.53,235.54l.94-71.53s-10.5,1.32-15.94,2.44c-27.56,6.38-51.75,22.53-68.07,45.62l62.82,34.92c5.63-5.44,12.56-9.39,20.25-11.45ZM256.22,207.75c12-11.83,26.81-20.28,43.13-24.78l-.56,41.49c-2.06,1.13-4.13,2.25-6,3.38l-36.56-20.09Z"/>
  <path class="cls-2" d="M188.34,274.03c-4.31,0-7.87,3.38-7.87,7.7s3.38,7.88,7.69,7.88,7.87-3.38,7.87-7.7-3.38-7.89-7.69-7.89Z"/>
  <path class="cls-2" d="M248.72,164.76c2.06,3.76,6.94,5.07,10.69,2.82,3.75-2.06,5.06-6.94,2.81-10.7-2.06-3.76-6.94-5.07-10.69-2.82-3.75,2.25-4.88,6.95-2.81,10.7Z"/>
  <path class="cls-2" d="M280.59,279.66c0-3.75.38-7.7,1.5-11.64l-61.5-36.8c-3.19,6.95-5.63,14.08-7.31,21.59-5.81,25.16-3.19,51.63,7.5,75.28l61.32-36.8c-.94-3.76-1.5-7.7-1.5-11.64ZM264.84,283.04l-35.44,21.21c-3.94-15.77-4.12-32.29-.38-48.06.19-.38.19-.94.38-1.31l35.63,21.4c0,1.12-.19,2.25-.19,3.57v3.19Z"/>
</svg>